<svg width="60" height="60" viewBox="0 0 60 60" fill="none" xmlns="http://www.w3.org/2000/svg">
<path d="M12.5 55C11.125 55 9.9475 54.5108 8.9675 53.5325C7.98917 52.5525 7.5 51.375 7.5 50V15H12.5V50H40V55H12.5ZM22.5 45C21.125 45 19.9483 44.5108 18.97 43.5325C17.99 42.5525 17.5 41.375 17.5 40V10C17.5 8.625 17.99 7.4475 18.97 6.4675C19.9483 5.48917 21.125 5 22.5 5H45C46.375 5 47.5525 5.48917 48.5325 6.4675C49.5108 7.4475 50 8.625 50 10V40C50 41.375 49.5108 42.5525 48.5325 43.5325C47.5525 44.5108 46.375 45 45 45H22.5ZM22.5 40H45V10H22.5V40Z" fill="white"/>
</svg>
